<svg width="766" height="572" viewBox="0 0 766 572" fill="none" xmlns="http://www.w3.org/2000/svg">
<path fill-rule="evenodd" clip-rule="evenodd" d="M0.490264 244.36C3.63834 188.427 44.8501 91.1938 249.922 81.9868C497.195 70.8857 524.919 -82.4557 618.696 60.8104C712.469 204.076 846.916 354.886 702.654 471.25C568.781 579.238 393.706 551.665 168.78 457.884C4.6932 389.46 -2.65949 300.29 0.488309 244.36L0.490264 244.36Z" fill="#4C858B"/>
<path d="M36.5916 155.572L19.9999 146V165.202L36.5916 155.572Z" fill="#4C858B"/>
<path d="M67.0484 155.572L50.4567 146V165.202L67.0484 155.572Z" fill="#EA6628"/>
<path d="M97.5051 155.572L80.9135 146V165.202L97.5051 155.572Z" fill="#4C858B"/>
<path d="M704.592 62.5721L688 53V72.2022L704.592 62.5721Z" fill="#4C858B"/>
<path d="M735.048 62.5721L718.457 53V72.2022L735.048 62.5721Z" fill="#EA6628"/>
<path d="M765.505 62.5721L748.913 53V72.2022L765.505 62.5721Z" fill="#4C858B"/>
<path d="M149.507 97.2047C150.862 97.2047 151.96 96.1067 151.96 94.7522C151.96 93.3977 150.862 92.2997 149.507 92.2997C148.153 92.2997 147.055 93.3977 147.055 94.7522C147.055 96.1067 148.153 97.2047 149.507 97.2047Z" fill="black"/>
<path d="M165.071 97.2047C166.426 97.2047 167.524 96.1067 167.524 94.7522C167.524 93.3977 166.426 92.2997 165.071 92.2997C163.717 92.2997 162.619 93.3977 162.619 94.7522C162.619 96.1067 163.717 97.2047 165.071 97.2047Z" fill="black"/>
<path d="M180.635 97.2047C181.989 97.2047 183.087 96.1067 183.087 94.7522C183.087 93.3977 181.989 92.2997 180.635 92.2997C179.28 92.2997 178.182 93.3977 178.182 94.7522C178.182 96.1067 179.28 97.2047 180.635 97.2047Z" fill="black"/>
<path d="M149.507 78.8581C150.862 78.8581 151.96 77.7601 151.96 76.4056C151.96 75.0511 150.862 73.9531 149.507 73.9531C148.153 73.9531 147.055 75.0511 147.055 76.4056C147.055 77.7601 148.153 78.8581 149.507 78.8581Z" fill="black"/>
<path d="M165.071 78.8581C166.426 78.8581 167.524 77.7601 167.524 76.4056C167.524 75.0511 166.426 73.9531 165.071 73.9531C163.717 73.9531 162.619 75.0511 162.619 76.4056C162.619 77.7601 163.717 78.8581 165.071 78.8581Z" fill="black"/>
<path d="M180.635 78.8581C181.989 78.8581 183.087 77.7601 183.087 76.4056C183.087 75.0511 181.989 73.9531 180.635 73.9531C179.28 73.9531 178.182 75.0511 178.182 76.4056C178.182 77.7601 179.28 78.8581 180.635 78.8581Z" fill="black"/>
<path d="M149.507 62.8225C150.862 62.8225 151.96 61.7245 151.96 60.37C151.96 59.0155 150.862 57.9175 149.507 57.9175C148.153 57.9175 147.055 59.0155 147.055 60.37C147.055 61.7245 148.153 62.8225 149.507 62.8225Z" fill="black"/>
<path d="M165.071 62.8225C166.426 62.8225 167.524 61.7245 167.524 60.37C167.524 59.0155 166.426 57.9175 165.071 57.9175C163.717 57.9175 162.619 59.0155 162.619 60.37C162.619 61.7245 163.717 62.8225 165.071 62.8225Z" fill="black"/>
<path d="M180.635 62.8225C181.989 62.8225 183.087 61.7245 183.087 60.37C183.087 59.0155 181.989 57.9175 180.635 57.9175C179.28 57.9175 178.182 59.0155 178.182 60.37C178.182 61.7245 179.28 62.8225 180.635 62.8225Z" fill="black"/>
<path d="M149.507 150.417C150.862 150.417 151.96 149.319 151.96 147.965C151.96 146.61 150.862 145.512 149.507 145.512C148.153 145.512 147.055 146.61 147.055 147.965C147.055 149.319 148.153 150.417 149.507 150.417Z" fill="black"/>
<path d="M165.071 150.417C166.426 150.417 167.524 149.319 167.524 147.965C167.524 146.61 166.426 145.512 165.071 145.512C163.717 145.512 162.619 146.61 162.619 147.965C162.619 149.319 163.717 150.417 165.071 150.417Z" fill="black"/>
<path d="M180.635 150.417C181.989 150.417 183.087 149.319 183.087 147.965C183.087 146.61 181.989 145.512 180.635 145.512C179.28 145.512 178.182 146.61 178.182 147.965C178.182 149.319 179.28 150.417 180.635 150.417Z" fill="black"/>
<path d="M149.507 132.071C150.862 132.071 151.96 130.972 151.96 129.618C151.96 128.264 150.862 127.166 149.507 127.166C148.153 127.166 147.055 128.264 147.055 129.618C147.055 130.972 148.153 132.071 149.507 132.071Z" fill="black"/>
<path d="M165.071 132.071C166.426 132.071 167.524 130.972 167.524 129.618C167.524 128.264 166.426 127.166 165.071 127.166C163.717 127.166 162.619 128.264 162.619 129.618C162.619 130.972 163.717 132.071 165.071 132.071Z" fill="black"/>
<path d="M180.635 132.071C181.989 132.071 183.087 130.972 183.087 129.618C183.087 128.264 181.989 127.166 180.635 127.166C179.28 127.166 178.182 128.264 178.182 129.618C178.182 130.972 179.28 132.071 180.635 132.071Z" fill="black"/>
<path d="M149.507 116.035C150.862 116.035 151.96 114.937 151.96 113.582C151.96 112.228 150.862 111.13 149.507 111.13C148.153 111.13 147.055 112.228 147.055 113.582C147.055 114.937 148.153 116.035 149.507 116.035Z" fill="black"/>
<path d="M165.071 116.035C166.426 116.035 167.524 114.937 167.524 113.582C167.524 112.228 166.426 111.13 165.071 111.13C163.717 111.13 162.619 112.228 162.619 113.582C162.619 114.937 163.717 116.035 165.071 116.035Z" fill="black"/>
<path d="M180.635 116.035C181.989 116.035 183.087 114.937 183.087 113.582C183.087 112.228 181.989 111.13 180.635 111.13C179.28 111.13 178.182 112.228 178.182 113.582C178.182 114.937 179.28 116.035 180.635 116.035Z" fill="black"/>
<path d="M149.507 44.476C150.862 44.476 151.96 43.378 151.96 42.0235C151.96 40.6691 150.862 39.571 149.507 39.571C148.153 39.571 147.055 40.6691 147.055 42.0235C147.055 43.378 148.153 44.476 149.507 44.476Z" fill="black"/>
<path d="M165.071 44.476C166.426 44.476 167.524 43.378 167.524 42.0235C167.524 40.6691 166.426 39.571 165.071 39.571C163.717 39.571 162.619 40.6691 162.619 42.0235C162.619 43.378 163.717 44.476 165.071 44.476Z" fill="black"/>
<path d="M180.635 44.476C181.989 44.476 183.087 43.378 183.087 42.0235C183.087 40.6691 181.989 39.571 180.635 39.571C179.28 39.571 178.182 40.6691 178.182 42.0235C178.182 43.378 179.28 44.476 180.635 44.476Z" fill="black"/>
<path d="M149.507 26.1294C150.862 26.1294 151.96 25.0313 151.96 23.6769C151.96 22.3224 150.862 21.2244 149.507 21.2244C148.153 21.2244 147.055 22.3224 147.055 23.6769C147.055 25.0313 148.153 26.1294 149.507 26.1294Z" fill="black"/>
<path d="M165.071 26.1294C166.426 26.1294 167.524 25.0313 167.524 23.6769C167.524 22.3224 166.426 21.2244 165.071 21.2244C163.717 21.2244 162.619 22.3224 162.619 23.6769C162.619 25.0313 163.717 26.1294 165.071 26.1294Z" fill="black"/>
<path d="M180.635 26.1294C181.989 26.1294 183.087 25.0313 183.087 23.6769C183.087 22.3224 181.989 21.2244 180.635 21.2244C179.28 21.2244 178.182 22.3224 178.182 23.6769C178.182 25.0313 179.28 26.1294 180.635 26.1294Z" fill="black"/>
<path d="M149.507 7.78292C150.862 7.78292 151.96 6.6849 151.96 5.33042C151.96 3.97595 150.862 2.87793 149.507 2.87793C148.153 2.87793 147.055 3.97595 147.055 5.33042C147.055 6.6849 148.153 7.78292 149.507 7.78292Z" fill="black"/>
<path d="M165.071 7.78292C166.426 7.78292 167.524 6.6849 167.524 5.33042C167.524 3.97595 166.426 2.87793 165.071 2.87793C163.717 2.87793 162.619 3.97595 162.619 5.33042C162.619 6.6849 163.717 7.78292 165.071 7.78292Z" fill="black"/>
<path d="M180.635 7.78292C181.989 7.78292 183.087 6.6849 183.087 5.33042C183.087 3.97595 181.989 2.87793 180.635 2.87793C179.28 2.87793 178.182 3.97595 178.182 5.33042C178.182 6.6849 179.28 7.78292 180.635 7.78292Z" fill="black"/>
<path d="M672.452 518.327C673.807 518.327 674.905 517.229 674.905 515.874C674.905 514.52 673.807 513.422 672.452 513.422C671.098 513.422 670 514.52 670 515.874C670 517.229 671.098 518.327 672.452 518.327Z" fill="black"/>
<path d="M688.016 518.327C689.371 518.327 690.469 517.229 690.469 515.874C690.469 514.52 689.371 513.422 688.016 513.422C686.662 513.422 685.564 514.52 685.564 515.874C685.564 517.229 686.662 518.327 688.016 518.327Z" fill="black"/>
<path d="M703.58 518.327C704.935 518.327 706.033 517.229 706.033 515.874C706.033 514.52 704.935 513.422 703.58 513.422C702.226 513.422 701.128 514.52 701.128 515.874C701.128 517.229 702.226 518.327 703.58 518.327Z" fill="black"/>
<path d="M672.452 499.98C673.807 499.98 674.905 498.882 674.905 497.528C674.905 496.173 673.807 495.075 672.452 495.075C671.098 495.075 670 496.173 670 497.528C670 498.882 671.098 499.98 672.452 499.98Z" fill="black"/>
<path d="M688.016 499.98C689.371 499.98 690.469 498.882 690.469 497.528C690.469 496.173 689.371 495.075 688.016 495.075C686.662 495.075 685.564 496.173 685.564 497.528C685.564 498.882 686.662 499.98 688.016 499.98Z" fill="black"/>
<path d="M703.58 499.98C704.935 499.98 706.033 498.882 706.033 497.528C706.033 496.173 704.935 495.075 703.58 495.075C702.226 495.075 701.128 496.173 701.128 497.528C701.128 498.882 702.226 499.98 703.58 499.98Z" fill="black"/>
<path d="M672.452 483.945C673.807 483.945 674.905 482.847 674.905 481.492C674.905 480.138 673.807 479.04 672.452 479.04C671.098 479.04 670 480.138 670 481.492C670 482.847 671.098 483.945 672.452 483.945Z" fill="black"/>
<path d="M688.016 483.945C689.371 483.945 690.469 482.847 690.469 481.492C690.469 480.138 689.371 479.04 688.016 479.04C686.662 479.04 685.564 480.138 685.564 481.492C685.564 482.847 686.662 483.945 688.016 483.945Z" fill="black"/>
<path d="M703.58 483.945C704.935 483.945 706.033 482.847 706.033 481.492C706.033 480.138 704.935 479.04 703.58 479.04C702.226 479.04 701.128 480.138 701.128 481.492C701.128 482.847 702.226 483.945 703.58 483.945Z" fill="black"/>
<path d="M672.452 571.539C673.807 571.539 674.905 570.441 674.905 569.087C674.905 567.732 673.807 566.634 672.452 566.634C671.098 566.634 670 567.732 670 569.087C670 570.441 671.098 571.539 672.452 571.539Z" fill="black"/>
<path d="M688.016 571.539C689.371 571.539 690.469 570.441 690.469 569.087C690.469 567.732 689.371 566.634 688.016 566.634C686.662 566.634 685.564 567.732 685.564 569.087C685.564 570.441 686.662 571.539 688.016 571.539Z" fill="black"/>
<path d="M703.58 571.539C704.935 571.539 706.033 570.441 706.033 569.087C706.033 567.732 704.935 566.634 703.58 566.634C702.226 566.634 701.128 567.732 701.128 569.087C701.128 570.441 702.226 571.539 703.58 571.539Z" fill="black"/>
<path d="M672.452 553.193C673.807 553.193 674.905 552.095 674.905 550.74C674.905 549.386 673.807 548.288 672.452 548.288C671.098 548.288 670 549.386 670 550.74C670 552.095 671.098 553.193 672.452 553.193Z" fill="black"/>
<path d="M688.016 553.193C689.371 553.193 690.469 552.095 690.469 550.74C690.469 549.386 689.371 548.288 688.016 548.288C686.662 548.288 685.564 549.386 685.564 550.74C685.564 552.095 686.662 553.193 688.016 553.193Z" fill="black"/>
<path d="M703.58 553.193C704.935 553.193 706.033 552.095 706.033 550.74C706.033 549.386 704.935 548.288 703.58 548.288C702.226 548.288 701.128 549.386 701.128 550.74C701.128 552.095 702.226 553.193 703.58 553.193Z" fill="black"/>
<path d="M672.452 537.157C673.807 537.157 674.905 536.059 674.905 534.705C674.905 533.35 673.807 532.252 672.452 532.252C671.098 532.252 670 533.35 670 534.705C670 536.059 671.098 537.157 672.452 537.157Z" fill="black"/>
<path d="M688.016 537.157C689.371 537.157 690.469 536.059 690.469 534.705C690.469 533.35 689.371 532.252 688.016 532.252C686.662 532.252 685.564 533.35 685.564 534.705C685.564 536.059 686.662 537.157 688.016 537.157Z" fill="black"/>
<path d="M703.58 537.157C704.935 537.157 706.033 536.059 706.033 534.705C706.033 533.35 704.935 532.252 703.58 532.252C702.226 532.252 701.128 533.35 701.128 534.705C701.128 536.059 702.226 537.157 703.58 537.157Z" fill="black"/>
<path d="M672.452 465.598C673.807 465.598 674.905 464.5 674.905 463.146C674.905 461.791 673.807 460.693 672.452 460.693C671.098 460.693 670 461.791 670 463.146C670 464.5 671.098 465.598 672.452 465.598Z" fill="black"/>
<path d="M688.016 465.598C689.371 465.598 690.469 464.5 690.469 463.146C690.469 461.791 689.371 460.693 688.016 460.693C686.662 460.693 685.564 461.791 685.564 463.146C685.564 464.5 686.662 465.598 688.016 465.598Z" fill="black"/>
<path d="M703.58 465.598C704.935 465.598 706.033 464.5 706.033 463.146C706.033 461.791 704.935 460.693 703.58 460.693C702.226 460.693 701.128 461.791 701.128 463.146C701.128 464.5 702.226 465.598 703.58 465.598Z" fill="black"/>
<path d="M672.452 447.252C673.807 447.252 674.905 446.154 674.905 444.799C674.905 443.445 673.807 442.347 672.452 442.347C671.098 442.347 670 443.445 670 444.799C670 446.154 671.098 447.252 672.452 447.252Z" fill="black"/>
<path d="M688.016 447.252C689.371 447.252 690.469 446.154 690.469 444.799C690.469 443.445 689.371 442.347 688.016 442.347C686.662 442.347 685.564 443.445 685.564 444.799C685.564 446.154 686.662 447.252 688.016 447.252Z" fill="black"/>
<path d="M703.58 447.252C704.935 447.252 706.033 446.154 706.033 444.799C706.033 443.445 704.935 442.347 703.58 442.347C702.226 442.347 701.128 443.445 701.128 444.799C701.128 446.154 702.226 447.252 703.58 447.252Z" fill="black"/>
<path d="M672.452 428.905C673.807 428.905 674.905 427.807 674.905 426.453C674.905 425.098 673.807 424 672.452 424C671.098 424 670 425.098 670 426.453C670 427.807 671.098 428.905 672.452 428.905Z" fill="black"/>
<path d="M688.016 428.905C689.371 428.905 690.469 427.807 690.469 426.452C690.469 425.098 689.371 424 688.016 424C686.662 424 685.564 425.098 685.564 426.452C685.564 427.807 686.662 428.905 688.016 428.905Z" fill="black"/>
<path d="M703.58 428.905C704.935 428.905 706.033 427.807 706.033 426.452C706.033 425.098 704.935 424 703.58 424C702.226 424 701.128 425.098 701.128 426.452C701.128 427.807 702.226 428.905 703.58 428.905Z" fill="black"/>
</svg>
