<svg width="24" height="22" viewBox="0 0 24 22" fill="none" xmlns="http://www.w3.org/2000/svg">
<path d="M23.6437 7.67485C23.3268 7.27726 22.8513 7.04917 22.3392 7.04917H17.7171L15.2108 1.31012C15.0554 0.954291 14.6409 0.791682 14.285 0.947166C13.9291 1.10256 13.7666 1.51707 13.9221 1.87295L16.1826 7.04921H7.81739L10.0779 1.87295C10.2333 1.51707 10.0709 1.1026 9.71499 0.947166C9.35916 0.791682 8.94464 0.954198 8.78925 1.31012L6.28289 7.04921H1.66083C1.14867 7.04921 0.673222 7.27726 0.3563 7.6749C0.0451904 8.06528 -0.0696064 8.56712 0.0413467 9.0519L2.50964 19.8332C2.682 20.586 3.34796 21.1117 4.12913 21.1117H19.8709C20.652 21.1117 21.318 20.586 21.4904 19.8332L23.9587 9.05185C24.0696 8.56707 23.9548 8.06523 23.6437 7.67485ZM19.8709 19.7054H4.12913C4.00974 19.7054 3.90516 19.6271 3.88046 19.5192L1.41216 8.73807C1.3928 8.65346 1.42528 8.58981 1.45603 8.55132C1.48453 8.51551 1.54908 8.45546 1.66083 8.45546H5.66878L5.48461 8.8772C5.32922 9.23307 5.49169 9.64754 5.84757 9.80298C5.93916 9.84301 6.0346 9.86195 6.12858 9.86195C6.39961 9.86195 6.65789 9.70431 6.7733 9.44007L7.20328 8.45556H16.7968L17.2268 9.44007C17.3422 9.70435 17.6005 9.86195 17.8715 9.86195C17.9655 9.86195 18.0609 9.84301 18.1525 9.80298C18.5084 9.64759 18.6709 9.23307 18.5155 8.8772L18.3313 8.45546H22.3393C22.451 8.45546 22.5156 8.51551 22.5441 8.55132C22.5748 8.58985 22.6073 8.65351 22.5879 8.73803L20.1196 19.5193C20.0949 19.6271 19.9903 19.7054 19.8709 19.7054Z" fill="black"/>
</svg>
