<svg  display="none" xmlns="http://www.w3.org/2000/svg">

    <symbol id="vk" viewBox="0 0 20 20">
      <g clip-path="url(#clip0_121_49)">
        <path d="M16.5958 10.8567C16.2725 10.4484 16.365 10.2667 16.5958
          9.90175C16.6 9.89758 19.2692 6.20925 19.5442 4.95841L19.5458
          4.95758C19.6825 4.50175 19.5458 4.16675 18.885 4.16675H16.6983C16.1417
          4.16675 15.885 4.45425 15.7475 4.77591C15.7475 4.77591 14.6342
          7.44092 13.0592 9.16842C12.5508 9.66758 12.3158 9.82758 12.0383
          9.82758C11.9017 9.82758 11.6892 9.66758 11.6892 9.21175V4.95758C11.6892
          4.41091 11.5333 4.16675 11.0725 4.16675H7.63417C7.285 4.16675
          7.0775 4.42175 7.0775 4.65925C7.0775 5.17758 7.865 5.29675 
          7.94667 6.75508V9.91925C7.94667 10.6126 7.82083 10.7401 
          7.54167 10.7401C6.79833 10.7401 4.99417 8.06425 3.925
          5.00175C3.70917 4.40758 3.49833 4.16758 2.9375 
          4.16758H0.75C0.125833 4.16758 0 4.45508 0 4.77675C0 
          5.34508 0.743333 8.17092 3.45667 11.9042C5.265
          14.4526 7.81167 15.8334 10.1283 15.8334C11.5208 
          15.8334 11.6908 15.5268 11.6908 14.9993C11.6908 
          12.5642 11.565 12.3342 12.2625 12.3342C12.5858 
          12.3342 13.1425 12.4943 14.4425 13.7234C15.9283
          15.1809 16.1725 15.8334 17.0042 15.8334H19.1908C19.8142
          15.8334 20.13 15.5268 19.9483 14.9218C19.5325 13.6493 16.7225 
          11.0317 16.5958 10.8567Z" />
      </g>
    </symbol>

    <symbol id="telegram" viewBox="0 0 19 20">
      <g clip-path="url(#clip0_121_47)">
        <path d="M7.45514 12.6508L7.14085 17.3041C7.59052 17.3041 7.78527 17.1008 8.01881 16.8566L10.127 14.7358L14.4954 18.1033C15.2966 18.5733 15.8611 18.3258 16.0772 17.3274L18.9446 3.1841L18.9454 3.18326C19.1995 1.9366 18.5171 1.4491 17.7365 1.75493L0.881935 8.54743C-0.268356 9.01743 -0.25094 9.69243 0.686394 9.99826L4.99544 11.4091L15.0045 4.8166C15.4755 4.48826 15.9038 4.66993 15.5515 4.99826L7.45514 12.6508Z" />
      </g>
    </symbol>

    <symbol id="instagram" viewBox="0 0 15 16">
        <path d="M10.9396 0H4.06036C1.82144 0 0 1.94287 0 4.33105V11.669C0 14.0571 1.82144 16 4.06036 16H10.9397C13.1785 16 15 14.0571 15 11.669V4.33105C15 1.94287 13.1785 0 10.9396 0V0ZM7.49999 12.3749C5.23841 12.3749 3.39855 10.4123 3.39855 7.99998C3.39855 5.58764 5.23841 3.62512 7.49999 3.62512C9.76156 3.62512 11.6014 5.58764 11.6014 7.99998C11.6014 10.4123 9.76156 12.3749 7.49999 12.3749ZM11.6995 4.65685C11.0312 4.65685 10.4876 4.07702 10.4876 3.36413C10.4876 2.65124 11.0312 2.07129 11.6995 2.07129C12.3678 2.07129 12.9115 2.65124 12.9115 3.36413C12.9115 4.07702 12.3678 4.65685 11.6995 4.65685Z"/>
        <path d="M7.49997 4.56299C5.72339 4.56299 4.27789 6.10473 4.27789 7.99987C4.27789 9.89489 5.72339 11.4368 7.49997 11.4368C9.27666 11.4368 10.722 9.89489 10.722 7.99987C10.722 6.10473 9.27666 4.56299 7.49997 4.56299Z" />
        <path d="M11.6995 3.00928C11.5162 3.00928 11.3669 3.16846 11.3669 3.36401C11.3669 3.55957 11.5162 3.71875 11.6995 3.71875C11.883 3.71875 12.0322 3.55969 12.0322 3.36401C12.0322 3.16833 11.883 3.00928 11.6995 3.00928Z" />
    </symbol>

    <symbol id="whatsapp" viewBox="0 0 15 16" >
        <path d="M7.50187 0H7.49813C3.36281 0 0 3.588 0 8C0 9.75 0.52875 11.372 1.42781 12.689L0.493125 15.661L3.37594 14.678C4.56187 15.516 5.97656 16 7.50187 16C11.6372 16 15 12.411 15 8C15 3.589 11.6372 0 7.50187 0ZM11.8659 11.297C11.685 11.842 10.9669 12.294 10.3941 12.426C10.0022 12.515 9.49031 12.586 7.76719 11.824C5.56312 10.85 4.14375 8.461 4.03312 8.306C3.92719 8.151 3.1425 7.041 3.1425 5.893C3.1425 4.745 3.68906 4.186 3.90938 3.946C4.09031 3.749 4.38937 3.659 4.67625 3.659C4.76906 3.659 4.8525 3.664 4.9275 3.668C5.14781 3.678 5.25844 3.692 5.40375 4.063C5.58469 4.528 6.02531 5.676 6.07781 5.794C6.13125 5.912 6.18469 6.072 6.10969 6.227C6.03938 6.387 5.9775 6.458 5.86687 6.594C5.75625 6.73 5.65125 6.834 5.54062 6.98C5.43937 7.107 5.325 7.243 5.4525 7.478C5.58 7.708 6.02063 8.475 6.66937 9.091C7.50656 9.886 8.18531 10.14 8.42812 10.248C8.60906 10.328 8.82469 10.309 8.95687 10.159C9.12469 9.966 9.33187 9.646 9.54281 9.331C9.69281 9.105 9.88219 9.077 10.0809 9.157C10.2834 9.232 11.355 9.797 11.5753 9.914C11.7956 10.032 11.9409 10.088 11.9944 10.187C12.0469 10.286 12.0469 10.751 11.8659 11.297Z"/>
    </symbol>

    <symbol id="search" viewBox="0 0 22 22" >
      <path d="M21.7312 20.4351L15.475 14.1789C16.6868 12.682 17.4165 10.7799 17.4165 8.70826C17.4165 3.90681 13.5097 0 8.70822 0C3.90677 0 0 3.90677 0 8.70822C0 13.5097 3.90681 17.4165 8.70826 17.4165C10.7799 17.4165 12.682 16.6868 14.1789 15.475L20.4351 21.7312C20.6138 21.9099 20.8484 21.9998 21.0831 21.9998C21.3178 21.9998 21.5525 21.9099 21.7312 21.7312C22.0896 21.3728 22.0896 20.7934 21.7312 20.4351ZM8.70826 15.5832C4.91695 15.5832 1.83333 12.4995 1.83333 8.70822C1.83333 4.91691 4.91695 1.83329 8.70826 1.83329C12.4996 1.83329 15.5832 4.91691 15.5832 8.70822C15.5832 12.4995 12.4995 15.5832 8.70826 15.5832Z"/>
    </symbol>
    
    <symbol id="likes" viewBox="0 0 23 21" >
      <path d="M11.5 20.7204C11.1725 20.7204 10.8569 20.6018 10.6108 20.3863C9.6817 19.5739 8.78589 18.8104 7.99555 18.1369L7.99152 18.1334C5.67436 16.1588 3.67341 14.4535 2.28118 12.7736C0.72489 10.8957 0 9.11514 0 7.16999C0 5.28011 0.648032 3.53658 1.8246 2.26035C3.0152 0.969017 4.64888 0.257812 6.42522 0.257812C7.75287 0.257812 8.96874 0.677551 10.039 1.50527C10.5791 1.92308 11.0687 2.43442 11.5 3.03086C11.9315 2.43442 12.4209 1.92308 12.9612 1.50527C14.0314 0.677551 15.2473 0.257812 16.5749 0.257812C18.3511 0.257812 19.9849 0.969017 21.1755 2.26035C22.3521 3.53658 23 5.28011 23 7.16999C23 9.11514 22.2752 10.8957 20.7189 12.7735C19.3267 14.4535 17.3259 16.1586 15.0091 18.133C14.2174 18.8076 13.3202 19.5723 12.3889 20.3867C12.1431 20.6018 11.8272 20.7204 11.5 20.7204V20.7204ZM6.42522 1.60512C5.02966 1.60512 3.74764 2.16208 2.81498 3.17352C1.86847 4.20023 1.34713 5.61948 1.34713 7.16999C1.34713 8.80595 1.95515 10.2691 3.31842 11.914C4.63607 13.504 6.59596 15.1742 8.86521 17.1081L8.86942 17.1116C9.66275 17.7877 10.5621 18.5542 11.498 19.3726C12.4397 18.5526 13.3404 17.7849 14.1353 17.1077C16.4043 15.1738 18.3641 13.504 19.6817 11.914C21.0448 10.2691 21.6528 8.80595 21.6528 7.16999C21.6528 5.61948 21.1315 4.20023 20.185 3.17352C19.2525 2.16208 17.9703 1.60512 16.5749 1.60512C15.5526 1.60512 14.614 1.9301 13.7852 2.57094C13.0466 3.14229 12.5321 3.86455 12.2305 4.36992C12.0754 4.6298 11.8023 4.78492 11.5 4.78492C11.1976 4.78492 10.9246 4.6298 10.7695 4.36992C10.468 3.86455 9.95351 3.14229 9.21476 2.57094C8.38599 1.9301 7.44737 1.60512 6.42522 1.60512V1.60512Z"/>
   </symbol>

     <symbol id="cart" viewBox="0 0 24 22">
      <path d="M23.6437 7.67485C23.3268 7.27726 22.8513 7.04917 22.3392 7.04917H17.7171L15.2108 1.31012C15.0554 0.954291 14.6409 0.791682 14.285 0.947166C13.9291 1.10256 13.7666 1.51707 13.9221 1.87295L16.1826 7.04921H7.81739L10.0779 1.87295C10.2333 1.51707 10.0709 1.1026 9.71499 0.947166C9.35916 0.791682 8.94464 0.954198 8.78925 1.31012L6.28289 7.04921H1.66083C1.14867 7.04921 0.673222 7.27726 0.3563 7.6749C0.0451904 8.06528 -0.0696064 8.56712 0.0413467 9.0519L2.50964 19.8332C2.682 20.586 3.34796 21.1117 4.12913 21.1117H19.8709C20.652 21.1117 21.318 20.586 21.4904 19.8332L23.9587 9.05185C24.0696 8.56707 23.9548 8.06523 23.6437 7.67485ZM19.8709 19.7054H4.12913C4.00974 19.7054 3.90516 19.6271 3.88046 19.5192L1.41216 8.73807C1.3928 8.65346 1.42528 8.58981 1.45603 8.55132C1.48453 8.51551 1.54908 8.45546 1.66083 8.45546H5.66878L5.48461 8.8772C5.32922 9.23307 5.49169 9.64754 5.84757 9.80298C5.93916 9.84301 6.0346 9.86195 6.12858 9.86195C6.39961 9.86195 6.65789 9.70431 6.7733 9.44007L7.20328 8.45556H16.7968L17.2268 9.44007C17.3422 9.70435 17.6005 9.86195 17.8715 9.86195C17.9655 9.86195 18.0609 9.84301 18.1525 9.80298C18.5084 9.64759 18.6709 9.23307 18.5155 8.8772L18.3313 8.45546H22.3393C22.451 8.45546 22.5156 8.51551 22.5441 8.55132C22.5748 8.58985 22.6073 8.65351 22.5879 8.73803L20.1196 19.5193C20.0949 19.6271 19.9903 19.7054 19.8709 19.7054Z"/>
    </symbol>
    

     <symbol id="warranty"  viewBox="0 0 79 79" >
      <path d="M77.7256 0H6.37095C5.6679 0 5.09676 0.571145 5.09676 1.27419V5.09676H1.27419C0.571146 5.09676 0 5.6679 0 6.37095V57.3385C0 58.0434 0.571146 58.6127 1.27419 58.6127H26.1476C27.3609 60.0791 28.8721 61.2861 30.5806 62.1628V77.7255C30.5806 78.2401 30.8916 78.7067 31.367 78.9027C31.8423 79.1005 32.3898 78.991 32.7556 78.6264L36.9515 74.4306L41.1474 78.6264C41.3906 78.8697 41.7173 78.9997 42.0483 78.9997C42.2125 78.9997 42.3786 78.9692 42.5367 78.9027C43.0114 78.7067 43.3224 78.2401 43.3224 77.7255V62.1628C45.0303 61.2861 46.5409 60.0804 47.7554 58.6127H72.6288C73.3325 58.6127 73.903 58.0434 73.903 57.3385V53.5159H77.7256C78.4292 53.5159 78.9998 52.9467 78.9998 52.2418V1.27419C78.9998 0.571145 78.4292 0 77.7256 0ZM40.7741 74.6496L37.8524 71.7279C37.354 71.2295 36.549 71.2295 36.0506 71.7279L33.1289 74.6496V63.1669C34.3459 63.5122 35.625 63.7095 36.9515 63.7095C38.278 63.7095 39.5571 63.5122 40.7741 63.1669V74.6496ZM36.9515 61.1611C30.6291 61.1611 25.4838 56.017 25.4838 49.6934C25.4838 43.3697 30.6291 38.2257 36.9515 38.2257C43.2739 38.2257 48.4192 43.3697 48.4192 49.6934C48.4192 56.017 43.2739 61.1611 36.9515 61.1611ZM23.0007 50.9676H15.2001C14.6395 47.066 11.5455 43.9738 7.64514 43.4126V20.2968C11.5455 19.7356 14.6395 16.6422 15.2001 12.7419H58.7048C59.2654 16.6422 62.3588 19.7356 66.2591 20.2968V43.4139C62.3588 43.9738 59.2654 47.0672 58.7048 50.9688H50.9041C50.9408 50.547 50.9676 50.1239 50.9676 49.6934C50.9676 41.9655 44.6794 35.6773 36.9515 35.6773C29.2236 35.6773 22.9354 41.9655 22.9354 49.6934C22.9354 50.1239 22.9622 50.547 23.0007 50.9676ZM71.3546 56.0643H49.4209C49.8353 55.2568 50.1725 54.4056 50.4251 53.5159H59.8869C60.5906 53.5159 61.1611 52.9467 61.1611 52.2418C61.1611 48.729 64.0193 45.8708 67.5321 45.8708C68.2357 45.8708 68.8062 45.3015 68.8062 44.5966V19.1128C68.8062 18.4098 68.2357 17.8386 67.5321 17.8386C64.0193 17.8386 61.1611 14.9804 61.1611 11.4677C61.1611 10.7647 60.5906 10.1935 59.8869 10.1935H14.0161C13.313 10.1935 12.7419 10.7647 12.7419 11.4677C12.7419 14.9804 9.8843 17.8386 6.37095 17.8386C5.6679 17.8386 5.09676 18.4098 5.09676 19.1128V44.5966C5.09676 45.3015 5.6679 45.8708 6.37095 45.8708C9.8843 45.8708 12.7419 48.729 12.7419 52.2418C12.7419 52.9467 13.313 53.5159 14.0161 53.5159H23.4786C23.7305 54.4056 24.0684 55.2568 24.4821 56.0643H2.54838V7.64514H71.3546V56.0643ZM76.4514 50.9676H73.903V6.37095C73.903 5.6679 73.3325 5.09676 72.6288 5.09676H7.64514V2.54838H76.4514V50.9676Z" />
    </symbol>
   

    <symbol id="help" viewBox="0 0 78 78" >
      <g clip-path="url(#clip0_1_270)">
        <path d="M34.225 44.5933H4.8244C3.48009 44.5933 3.48009 42.561 4.8244 42.561H31.3762C32.8872 42.561 32.889 40.2765 31.3762 40.2765H7.07683V6.60196H69.1087V40.2765H61.7551C60.2448 40.2765 60.2418 42.561 61.7551 42.561H71.7747C73.1184 42.561 73.1184 44.5933 71.7747 44.5933H59.1105C57.6002 44.5933 57.5978 46.8784 59.1105 46.8784H71.7747C73.5945 46.8784 75.0751 45.3972 75.0751 43.5775C75.0751 41.7571 73.5945 40.2765 71.7747 40.2765H71.3939V6.60196H71.7747C73.5945 6.60196 75.0751 5.12077 75.0751 3.30098C75.0751 1.48059 73.5945 0 71.7747 0H4.8244C3.00401 0 1.52342 1.48059 1.52342 3.30098C1.52342 5.11006 2.98676 6.58411 4.79167 6.60196V40.2765C2.98676 40.2943 1.52342 41.7678 1.52342 43.5775C1.52342 45.3972 3.00401 46.8784 4.8244 46.8784H34.225C35.7353 46.8784 35.7377 44.5933 34.225 44.5933ZM4.8244 2.28516H71.7747C73.1184 2.28516 73.1184 4.3168 71.7747 4.3168H4.8244C3.47949 4.3168 3.48128 2.28516 4.8244 2.28516Z" fill="#4C858B"/>
        <path d="M21.1878 10.7348C21.1878 9.73152 20.3713 8.91565 19.368 8.91565H12.1953C11.192 8.91565 10.3761 9.73152 10.3761 10.7348V15.1659C10.3761 16.1692 11.192 16.9851 12.1953 16.9851H19.368C20.3713 16.9851 21.1878 16.1692 21.1878 15.1659V10.7348ZM18.9026 14.6999H12.6607V11.2002H18.9026V14.6999Z" fill="#4C858B"/>
        <path d="M21.1878 21.3234C21.1878 20.3201 20.3713 19.5042 19.368 19.5042H12.1953C11.192 19.5042 10.3761 20.3201 10.3761 21.3234V25.7545C10.3761 26.7578 11.192 27.5737 12.1953 27.5737H19.368C20.3713 27.5737 21.1878 26.7578 21.1878 25.7545V21.3234ZM18.9026 25.2885H12.6607V21.7888H18.9026V25.2885Z" fill="#4C858B"/>
        <path d="M19.368 30.0925H12.1953C11.192 30.0925 10.3761 30.9084 10.3761 31.9117V36.3428C10.3761 37.3461 11.192 38.162 12.1953 38.162H19.368C20.3713 38.162 21.1878 37.3461 21.1878 36.3428V31.9117C21.1878 30.9084 20.3713 30.0925 19.368 30.0925ZM18.9026 35.8774H12.6607V32.3771H18.9026V35.8774Z" fill="#4C858B"/>
        <path d="M69.5224 51.9159C68.2781 51.3809 66.973 50.9989 65.6436 50.74L54.0672 48.4894V45.6288C57.3182 43.4114 59.0779 40.2705 59.4612 36.7434C61.1483 36.6095 62.4807 35.1938 62.4807 33.4728V31.1246C65.2318 29.9284 64.8599 25.9139 61.9493 25.2367V24.3298C61.9493 16.1824 55.3443 9.57684 47.1963 9.57684H45.9597C37.8117 9.57684 31.2068 16.1824 31.2068 24.3298V25.2361C28.2973 25.9133 27.9242 29.9284 30.6759 31.1246V33.4722C30.6759 35.1938 32.0078 36.6095 33.6954 36.7428C34.0769 40.2539 35.8152 43.3954 39.0894 45.6288V48.4888L27.513 50.74C26.1836 50.9989 24.8785 51.3803 23.6342 51.9159C18.9371 53.9374 16.6454 57.1646 16.6454 61.723V64.0701C16.6454 65.5804 18.93 65.5828 18.93 64.0701V61.7236C18.93 58.3001 20.4856 55.9328 23.8978 54.2975C24.0353 54.9057 26.1288 60.5882 26.1288 68.5279V75.7155H21.3008C19.9916 75.7155 18.93 74.6538 18.93 73.3446V68.616C18.93 67.1057 16.6454 67.1033 16.6454 68.616V73.3446C16.6454 75.916 18.7294 78 21.3008 78H71.8558C74.4272 78 76.5112 75.916 76.5112 73.3446V61.7236C76.5112 57.1646 74.2189 53.9374 69.5224 51.9159ZM67.1283 53.4483C66.9695 54.1457 64.7426 60.1407 64.7426 68.5279V75.7155H47.7206V69.9591C47.7206 68.2476 48.2413 66.6028 49.2262 65.2031C50.7014 63.1054 56.7779 54.3379 58.5798 51.6945C66.7814 53.3459 65.7924 53.0037 67.1283 53.4483ZM45.799 63.888C44.9225 62.6419 43.784 61.0065 42.5956 59.2927C42.9485 59.2147 43.2931 59.079 43.6162 58.8856L46.578 57.1093L49.5398 58.8856C49.8629 59.079 50.2075 59.2147 50.5604 59.2927C49.3732 61.006 48.2347 62.6407 47.3576 63.888C47.0654 64.3034 46.8053 64.7354 46.578 65.1811C46.3513 64.7354 46.0912 64.3034 45.799 63.888ZM44.2458 55.8435C42.4368 56.8123 42.5653 57.1021 41.7435 57.0045C41.2323 56.9438 40.7735 56.6594 40.4807 56.2357C39.1149 54.2576 37.8504 52.4223 37.0226 51.2185L39.3107 50.7739C40.0498 53.0186 42.4856 54.8039 44.2458 55.8435ZM56.134 51.2191C55.3039 52.4253 54.0363 54.2659 52.667 56.2488C52.1082 57.0569 51.1067 57.1605 50.7151 56.9254L48.9102 55.8435C50.6711 54.8039 53.1062 53.0186 53.8453 50.7739L56.134 51.2191ZM39.9237 13.4229V14.8559C39.9237 16.3663 42.2082 16.3686 42.2082 14.8559V12.4386C43.2336 12.1143 44.3161 11.9197 45.436 11.8733V17.5225C45.436 19.0329 47.7206 19.0352 47.7206 17.5225V11.8733C48.8405 11.9197 49.923 12.1149 50.9478 12.4386V14.8559C50.9478 16.3663 53.2329 16.3686 53.2329 14.8559V13.4235C60.3752 17.3916 59.6159 24.9755 59.6647 25.1564H33.4919C33.5312 25.0094 32.8183 17.3714 39.9237 13.4229ZM31.9125 27.4409H61.2441C62.3396 27.4409 62.3378 29.0959 61.2441 29.0959H31.9125C30.817 29.0959 30.8188 27.4409 31.9125 27.4409ZM35.908 35.5866C35.8943 34.9653 35.3873 34.469 34.7654 34.469C34.575 34.4214 32.9611 34.7653 32.9611 33.4728V31.381H60.1961V33.4728C60.1961 34.7635 58.5382 34.4321 58.3912 34.469C57.7693 34.469 57.2617 34.9653 57.2486 35.5866C57.1873 38.443 55.9739 41.0959 53.9185 42.8651C49.5553 46.622 43.6019 46.6226 39.2381 42.8651C37.1827 41.0959 35.9687 38.4424 35.908 35.5866ZM51.7821 46.8904V49.4308C51.7821 51.4738 48.3151 53.6369 46.578 54.5111C44.8427 53.6375 41.3834 51.4797 41.3739 49.4391C41.3739 49.4368 41.3739 49.4338 41.3739 49.4308V46.8904C44.6993 48.3245 48.4531 48.3263 51.7821 46.8904ZM26.0283 53.4483C27.3625 53.0049 26.371 53.3465 34.5762 51.6945L35.229 52.6431C35.8949 53.6113 36.8167 54.9497 37.8385 56.4303C39.7023 59.132 42.2731 62.8472 43.9304 65.2025C44.9153 66.6028 45.436 68.247 45.436 69.9591V75.7149H28.414V68.5273C28.414 59.9247 26.2413 54.3861 26.0283 53.4483ZM74.226 73.3446C74.226 74.6514 73.1632 75.7149 71.8558 75.7149H67.0278V68.5279C67.0278 60.806 69.1743 54.6712 69.2594 54.2975C72.671 55.9328 74.2266 58.3001 74.2266 61.7236V73.3446H74.226Z"/>
        <path d="M52.8062 66.0843C51.7291 66.0843 50.8525 66.9609 50.8525 68.038V70.3273C50.8525 71.405 51.7291 72.281 52.8062 72.281H59.5254C60.6025 72.281 61.4791 71.405 61.4791 70.3273V68.038C61.4791 66.9609 60.6025 66.0843 59.5254 66.0843H52.8062ZM59.1939 69.9959H53.1377V68.3695H59.1939V69.9959Z" fill="#4C858B"/>
      </g>
    </symbol>

    <symbol id="review" viewBox="0 0 77 77">
        <path d="M8.19933 6.82037C7.36902 6.82037 6.69557 7.49367 6.69557 8.32413C6.69557 9.15459 7.36887 9.82789 8.19933 9.82789H8.21437C9.04467 9.82789 9.7106 9.15459 9.7106 8.32413C9.7106 7.49367 9.02978 6.82037 8.19933 6.82037Z" fill="#4C858B"/>
        <path d="M15.4101 6.82037C14.5797 6.82037 13.9063 7.49367 13.9063 8.32413C13.9063 9.15459 14.5796 9.82789 15.4101 9.82789H15.4249C16.2552 9.82789 16.9213 9.15459 16.9213 8.32413C16.9213 7.49367 16.2405 6.82037 15.4101 6.82037Z" fill="#4C858B"/>
        <path d="M22.62 6.82037C21.7897 6.82037 21.1162 7.49367 21.1162 8.32413C21.1162 9.15459 21.7895 9.82789 22.62 9.82789H22.6349C23.4652 9.82789 24.1311 9.15459 24.1311 8.32413C24.1311 7.49367 23.4504 6.82037 22.62 6.82037Z" fill="#4C858B"/>
        <path d="M59.5048 6.82037H41.2562C40.4259 6.82037 39.7525 7.49367 39.7525 8.32413C39.7525 9.15459 40.4258 9.82789 41.2562 9.82789H59.5048C60.3351 9.82789 61.0085 9.15459 61.0085 8.32413C61.0085 7.49367 60.3351 6.82037 59.5048 6.82037Z" fill="#4C858B"/>
        <path d="M35.1777 59.6919C34.8978 59.4121 34.5099 59.2512 34.1146 59.2512C33.7192 59.2512 33.3312 59.4121 33.0516 59.6919C32.7719 59.9716 32.6108 60.3596 32.6108 60.755C32.6108 61.1504 32.7717 61.5384 33.0516 61.8179C33.3312 62.0977 33.719 62.2587 34.1146 62.2587C34.5101 62.2587 34.898 62.0978 35.1777 61.8179C35.4574 61.5384 35.6183 61.1505 35.6183 60.755C35.6183 60.3594 35.4574 59.9716 35.1777 59.6919Z" fill="#4C858B"/>
        <path d="M68.8798 19.2912V7.52314C68.8798 3.37733 65.507 0.0045166 61.3612 0.0045166H7.51863C3.37281 0.0045166 0 3.37748 0 7.52329V55.0367C0 59.0191 3.23987 62.259 7.22221 62.259H12.8658V62.5031C12.8658 63.0176 12.4996 63.4638 11.9952 63.5643L6.32814 64.6934C3.17881 65.3211 0.828953 67.8875 0.480949 71.0799L0.0175957 75.329C-0.0287246 75.7537 0.10798 76.178 0.393121 76.496C0.678262 76.8141 1.08537 76.9958 1.51248 76.9958H34.1146C34.5419 76.9958 34.949 76.814 35.2341 76.4959C35.5193 76.1778 35.6558 75.7534 35.6093 75.3287L35.1448 71.0782C34.796 67.8866 32.4463 65.321 29.2979 64.6935L23.6298 63.5643C23.1253 63.4638 22.7592 63.0174 22.7592 62.5031V61.0911C22.7592 61.0834 22.7582 61.076 22.758 61.0684L25.3067 59.6114C25.3348 59.5954 25.3622 59.5784 25.3891 59.5607C26.7557 58.6582 27.6531 57.0511 27.7898 55.2616C27.7928 55.2234 27.7941 55.1852 27.7941 55.147V48.9801C28.6927 48.3948 29.3487 47.3306 29.3487 45.4679L29.3511 42.0889C29.3511 42.033 29.3481 41.9778 29.3421 41.9233C29.1881 38.9476 26.7652 36.6361 23.7682 36.6361H10.9895C10.4285 36.6361 9.90788 36.3389 9.56981 36.0897C8.93651 35.6229 8.10831 35.5528 7.40764 35.9068C6.70968 36.2595 6.2761 36.9647 6.2761 37.7474V42.6403C6.2761 44.3022 6.86037 45.8297 7.8331 47.0306V55.147C7.8331 55.1852 7.8346 55.2234 7.83746 55.2616C7.95942 56.858 8.69754 58.3119 9.83855 59.2514H7.22221C4.89822 59.2516 3.00736 57.3609 3.00736 55.0367V23.4733H19.8006C20.6309 23.4733 21.3043 22.8 21.3043 21.9695C21.3043 21.1391 20.631 20.4658 19.8006 20.4658H3.00751V16.2553H65.8724V19.2497H41.4619C36.5147 19.2497 32.4896 23.2746 32.4896 28.2219V40.8082C32.4896 45.7554 36.5147 49.7804 41.4619 49.7804H43.3417V54.177C43.3417 54.7854 43.7082 55.3335 44.2699 55.5663C44.4559 55.6433 44.6514 55.6808 44.8451 55.6808C45.2366 55.6808 45.621 55.528 45.9087 55.2403L51.3686 49.7802H65.8726V55.0365C65.8726 57.3606 63.9817 59.2515 61.6576 59.2515H40.2339C39.4035 59.2515 38.7301 59.9248 38.7301 60.7553C38.7301 61.5857 39.4034 62.259 40.2339 62.259H61.6574C65.6399 62.259 68.8798 59.019 68.8798 55.0367V49.739C73.4288 49.3081 77 45.4682 77 40.8083V28.222C77 23.5622 73.4288 19.7221 68.8798 19.2912ZM23.7319 66.6513L28.7105 67.6432C30.5658 68.0127 31.95 69.5244 32.1556 71.4047L32.4379 73.9881H3.18933L3.47102 71.4058C3.676 69.5247 5.06049 68.0127 6.91601 67.643L11.895 66.651C13.5278 68.1056 15.6092 68.9019 17.8136 68.9019C20.018 68.9019 22.0993 68.1054 23.7319 66.6513ZM14.91 65.1318C15.4582 64.48 15.8023 63.6593 15.8612 62.7729C16.4831 63.0777 17.1481 63.2326 17.8136 63.2326C18.4783 63.2328 19.1425 63.0782 19.764 62.7739C19.8231 63.6604 20.1677 64.4809 20.7159 65.1327C19.8401 65.6288 18.8476 65.8943 17.8136 65.8943C16.7794 65.8943 15.7864 65.6284 14.91 65.1318ZM24.7869 55.0845C24.7111 55.904 24.324 56.641 23.7661 57.0283L18.7142 59.9162C18.686 59.9322 18.6587 59.9492 18.6317 59.9669C18.1117 60.3102 17.5154 60.3101 16.9956 59.9669C16.9693 59.9496 16.9424 59.9329 16.915 59.9173L11.8772 57.0286C11.3094 56.6356 10.9163 55.8982 10.8405 55.0843V49.1943C11.5956 49.4745 12.4119 49.628 13.2633 49.628H24.7869V55.0845ZM9.28361 42.6406V39.3291C9.84562 39.5368 10.4201 39.6437 10.9898 39.6437H23.7685C25.1715 39.6437 26.3018 40.742 26.3415 42.1443C26.342 42.161 26.3429 42.1778 26.3439 42.1945L26.3415 45.467C26.3415 45.4673 26.3415 45.4678 26.3415 45.4681C26.3415 46.2293 26.186 46.4217 26.1683 46.4412C26.1075 46.5077 25.8442 46.6203 25.2429 46.6203H13.2634C11.0688 46.6203 9.28361 44.8352 9.28361 42.6406ZM3.00751 13.2479V7.52329C3.00751 5.03583 5.03117 3.01218 7.51863 3.01218H61.3612C63.8486 3.01218 65.8723 5.03583 65.8723 7.52329V13.2481H3.00751V13.2479ZM73.9925 40.8083C73.9925 44.0972 71.3166 46.773 68.0277 46.773H50.7454C50.3466 46.773 49.9643 46.9315 49.6821 47.2135L46.349 50.5467V48.2767C46.349 47.4464 45.6757 46.773 44.8453 46.773H41.4619C38.1731 46.773 35.4972 44.0972 35.4972 40.8083V28.222C35.4972 24.9331 38.1731 22.2574 41.4619 22.2574H68.0277C71.3166 22.2574 73.9925 24.9331 73.9925 28.222V40.8083Z"/>
        <path d="M42.7148 29.9465C40.2273 29.9465 38.2035 31.9702 38.2035 34.4577C38.2035 36.9451 40.2272 38.9688 42.7148 38.9688C45.2023 38.9688 47.2259 36.9451 47.2259 34.4577C47.2259 31.9702 45.2023 29.9465 42.7148 29.9465ZM42.7148 35.9614C41.8857 35.9614 41.211 35.2869 41.211 34.4577C41.211 33.6285 41.8855 32.9539 42.7148 32.9539C43.5441 32.9539 44.2186 33.6284 44.2186 34.4577C44.2186 35.2869 43.5437 35.9614 42.7148 35.9614Z" fill="#4C858B"/>
        <path d="M54.7442 29.9465C52.2568 29.9465 50.2331 31.9702 50.2331 34.4577C50.2331 36.9451 52.2568 38.9688 54.7442 38.9688C57.2317 38.9688 59.2553 36.9451 59.2553 34.4577C59.2553 31.9702 57.2317 29.9465 54.7442 29.9465ZM54.7442 35.9614C53.9151 35.9614 53.2405 35.2869 53.2405 34.4577C53.2405 33.6285 53.915 32.9539 54.7442 32.9539C55.5735 32.9539 56.248 33.6284 56.248 34.4577C56.248 35.2869 55.5733 35.9614 54.7442 35.9614Z" fill="#4C858B"/>
        <path d="M66.7745 29.9465C64.2871 29.9465 62.2634 31.9702 62.2634 34.4577C62.2634 36.9451 64.2871 38.9688 66.7745 38.9688C69.262 38.9688 71.2858 36.9451 71.2858 34.4577C71.2858 31.9702 69.262 29.9465 66.7745 29.9465ZM66.7745 35.9614C65.9454 35.9614 65.2708 35.2869 65.2708 34.4577C65.2708 33.6285 65.9453 32.9539 66.7745 32.9539C67.6037 32.9539 68.2783 33.6284 68.2783 34.4577C68.2783 35.2869 67.6035 35.9614 66.7745 35.9614Z" fill="#4C858B"/>
        <path d="M26.5024 20.9062C26.2228 20.6265 25.8349 20.4655 25.4394 20.4655C25.0439 20.4655 24.6562 20.6264 24.3763 20.9062C24.0966 21.1858 23.9356 21.5723 23.9356 21.9692C23.9356 22.3649 24.0964 22.7527 24.3763 23.0323C24.656 23.312 25.0439 23.473 25.4394 23.473C25.8364 23.473 26.2228 23.3122 26.5024 23.0323C26.7836 22.7527 26.9432 22.3649 26.9432 21.9692C26.9432 21.5738 26.7836 21.1858 26.5024 20.9062Z" fill="#4C858B"/>
    </symbol>

    <symbol id="menu" viewBox="0 0 22 22">
      <g clip-path="url(#clip0_121_29)">
      <path d="M21.0833 0.916748H0.916683C0.410405 0.916748 0 1.32715 0 1.83338C0 2.3396 0.410405 2.75006 0.916683 2.75006H21.0833C21.5896 2.75006 22 2.33966 22 1.83338C22 1.3271 21.5896 0.916748 21.0833 0.916748Z"/>
      <path d="M21.0833 10.0833H0.916683C0.410405 10.0833 0 10.4937 0 10.9999C0 11.5062 0.410405 11.9166 0.916683 11.9166H21.0833C21.5896 11.9166 22 11.5062 22 10.9999C22 10.4937 21.5896 10.0833 21.0833 10.0833Z"/>
      <path d="M21.0833 19.25H0.916683C0.410405 19.25 0 19.6604 0 20.1667C0 20.673 0.410405 21.0834 0.916683 21.0834H21.0833C21.5896 21.0834 22 20.673 22 20.1667C22 19.6604 21.5896 19.25 21.0833 19.25Z"/>
      </g>
    </symbol>
</svg>