<svg width="1157" height="407" fill="none" xmlns="http://www.w3.org/2000/svg"><path fill-rule="evenodd" clip-rule="evenodd" d="M763.78 401.147c104.755 29.459 155.727-83.59 245.48-74.989 49.13 4.708 147.07 28.57 146.85-145.255-.55-112.22-103.99-140.323-210.651-82.771-31.387 12.275-56.168 8.47-83.073-3.726-26.905-12.196-61.508-66.642-126.725-77.843-196.259-33.708-364.184 274.263 28.119 384.584zm-585.664 1.17c78.469 22.091 116.651-62.683 183.885-56.233 36.804 3.53 110.163 21.424 109.999-108.925-.41-84.154-77.892-105.227-157.792-62.069-23.512 9.204-42.075 6.352-62.229-2.794-20.154-9.146-46.074-49.975-94.926-58.374-147.014-25.277-272.802 205.666 21.063 288.395z" fill="#EA6628"/><path d="M66.12 355.542a2.12 2.12 0 100-4.241 2.12 2.12 0 000 4.241zm13.455 0a2.12 2.12 0 10-.001-4.241 2.12 2.12 0 000 4.241zm13.454 0a2.12 2.12 0 10-.001-4.241 2.12 2.12 0 000 4.241zm-26.909-15.86a2.12 2.12 0 100-4.24 2.12 2.12 0 000 4.24zm13.455 0a2.12 2.12 0 100-4.24 2.12 2.12 0 000 4.24zm13.454 0a2.12 2.12 0 100-4.24 2.12 2.12 0 000 4.24zM66.12 325.82a2.12 2.12 0 100-4.24 2.12 2.12 0 000 4.24zm13.455 0a2.12 2.12 0 100-4.24 2.12 2.12 0 000 4.24zm13.454 0a2.12 2.12 0 100-4.24 2.12 2.12 0 000 4.24zM66.12 401.542a2.12 2.12 0 10-.001-4.241 2.12 2.12 0 00.001 4.241zm13.454 0a2.12 2.12 0 100-4.241 2.12 2.12 0 000 4.241zm13.455 0a2.12 2.12 0 10-.001-4.241 2.12 2.12 0 000 4.241zm-26.909-15.86a2.12 2.12 0 100-4.24 2.12 2.12 0 000 4.24zm13.454 0a2.12 2.12 0 100-4.24 2.12 2.12 0 000 4.24zm13.455 0a2.12 2.12 0 100-4.24 2.12 2.12 0 000 4.24zM66.12 371.82a2.12 2.12 0 100-4.24 2.12 2.12 0 000 4.24zm13.454 0a2.12 2.12 0 100-4.24 2.12 2.12 0 000 4.24zm13.455 0a2.12 2.12 0 100-4.24 2.12 2.12 0 000 4.24zM66.12 309.96a2.12 2.12 0 100-4.24 2.12 2.12 0 000 4.24zm13.455 0a2.12 2.12 0 100-4.24 2.12 2.12 0 000 4.24zm13.454 0a2.12 2.12 0 100-4.24 2.12 2.12 0 000 4.24zM66.12 294.1a2.12 2.12 0 100-4.24 2.12 2.12 0 000 4.24zm13.455 0a2.12 2.12 0 100-4.24 2.12 2.12 0 000 4.24zm13.454 0a2.12 2.12 0 100-4.24 2.12 2.12 0 000 4.24zM66.12 278.24a2.12 2.12 0 100-4.24 2.12 2.12 0 000 4.24zm13.455 0a2.12 2.12 0 100-4.24 2.12 2.12 0 000 4.24zm13.454 0a2.12 2.12 0 100-4.24 2.12 2.12 0 000 4.24zM1050.16 81.542a2.12 2.12 0 10-.001-4.241 2.12 2.12 0 00.001 4.24zm13.45 0a2.12 2.12 0 10-.001-4.241 2.12 2.12 0 00.001 4.24zm13.46 0a2.12 2.12 0 10-.001-4.241 2.12 2.12 0 00.001 4.24zm-26.91-15.86a2.12 2.12 0 10-.001-4.241 2.12 2.12 0 00.001 4.24zm13.45 0a2.12 2.12 0 10-.001-4.241 2.12 2.12 0 00.001 4.24zm13.46 0a2.12 2.12 0 10-.001-4.241 2.12 2.12 0 00.001 4.24zm-26.91-13.862a2.12 2.12 0 10-.001-4.241 2.12 2.12 0 00.001 4.24zm13.45 0a2.12 2.12 0 10-.001-4.241 2.12 2.12 0 00.001 4.24zm13.46 0a2.12 2.12 0 10-.001-4.241 2.12 2.12 0 00.001 4.24zm-26.91 75.722a2.121 2.121 0 000-4.24 2.12 2.12 0 000 4.24zm13.45 0a2.121 2.121 0 000-4.24 2.12 2.12 0 000 4.24zm13.46 0a2.121 2.121 0 000-4.24 2.12 2.12 0 000 4.24zm-26.91-15.86a2.12 2.12 0 100-4.24 2.12 2.12 0 000 4.24zm13.45 0a2.12 2.12 0 100-4.24 2.12 2.12 0 000 4.24zm13.46 0a2.12 2.12 0 100-4.24 2.12 2.12 0 000 4.24zm-26.91-13.862a2.12 2.12 0 10-.001-4.241 2.12 2.12 0 00.001 4.24zm13.45 0a2.12 2.12 0 10-.001-4.241 2.12 2.12 0 00.001 4.24zm13.46 0a2.12 2.12 0 10-.001-4.241 2.12 2.12 0 00.001 4.24zm-26.91-61.86a2.12 2.12 0 10-.001-4.241 2.12 2.12 0 00.001 4.241zm13.45 0a2.12 2.12 0 10-.001-4.241 2.12 2.12 0 00.001 4.241zm13.46 0a2.12 2.12 0 10-.001-4.241 2.12 2.12 0 00.001 4.241zm-26.91-15.86a2.12 2.12 0 10-.001-4.241 2.12 2.12 0 00.001 4.241zm13.45 0a2.12 2.12 0 10-.001-4.241 2.12 2.12 0 00.001 4.241zm13.46 0a2.12 2.12 0 10-.001-4.241 2.12 2.12 0 00.001 4.241zm-26.91-15.86a2.12 2.12 0 10-.001-4.24 2.12 2.12 0 00.001 4.24zm13.45 0a2.12 2.12 0 10-.001-4.24 2.12 2.12 0 00.001 4.24zm13.46 0a2.12 2.12 0 10-.001-4.24 2.12 2.12 0 00.001 4.24z" fill="#000"/></svg>