<svg width="78" height="78" fill="none" xmlns="http://www.w3.org/2000/svg"><g clip-path="url(#clip0_1_270)" fill="#4C858B"><path d="M34.225 44.593h-29.4c-1.345 0-1.345-2.032 0-2.032h26.551c1.511 0 1.513-2.285 0-2.285h-24.3V6.602H69.11v33.674h-7.354c-1.51 0-1.513 2.285 0 2.285h10.02c1.343 0 1.343 2.032 0 2.032H59.11c-1.51 0-1.512 2.285 0 2.285h12.665c1.82 0 3.3-1.48 3.3-3.3 0-1.82-1.48-3.302-3.3-3.302h-.381V6.602h.38c1.82 0 3.301-1.481 3.301-3.301S73.595 0 71.775 0H4.825a3.304 3.304 0 00-3.302 3.301 3.305 3.305 0 003.269 3.301v33.675a3.305 3.305 0 00-3.269 3.3 3.305 3.305 0 003.301 3.301h29.401c1.51 0 1.513-2.285 0-2.285zM4.825 2.285h66.95c1.343 0 1.343 2.032 0 2.032H4.825c-1.346 0-1.344-2.032 0-2.032z"/><path d="M21.188 10.735c0-1.003-.817-1.82-1.82-1.82h-7.173a1.822 1.822 0 00-1.819 1.82v4.43c0 1.004.816 1.82 1.82 1.82h7.172c1.003 0 1.82-.816 1.82-1.82v-4.43zM18.903 14.7H12.66v-3.5h6.242v3.5zm2.285 6.623a1.822 1.822 0 00-1.82-1.819h-7.173a1.821 1.821 0 00-1.819 1.82v4.43c0 1.004.816 1.82 1.82 1.82h7.172c1.003 0 1.82-.816 1.82-1.82v-4.43zm-2.285 3.965H12.66v-3.5h6.242v3.5zm.465 4.805h-7.173a1.82 1.82 0 00-1.819 1.819v4.43c0 1.004.816 1.82 1.82 1.82h7.172c1.003 0 1.82-.816 1.82-1.82v-4.43c0-1.004-.817-1.82-1.82-1.82zm-.465 5.784H12.66v-3.5h6.242v3.5zm50.619 16.039a19.008 19.008 0 00-3.878-1.176l-11.577-2.25v-2.861c3.251-2.218 5.01-5.358 5.394-8.886a3.286 3.286 0 003.02-3.27v-2.348c2.75-1.197 2.379-5.211-.532-5.888v-.907c0-8.148-6.605-14.753-14.753-14.753H45.96c-8.148 0-14.753 6.605-14.753 14.753v.906c-2.91.677-3.283 4.692-.531 5.889v2.347a3.285 3.285 0 003.02 3.27c.38 3.512 2.12 6.653 5.393 8.887v2.86L27.513 50.74a18.97 18.97 0 00-3.879 1.176c-4.697 2.021-6.989 5.249-6.989 9.807v2.347c0 1.51 2.285 1.513 2.285 0v-2.346c0-3.424 1.556-5.791 4.968-7.426.137.608 2.23 6.29 2.23 14.23v7.188h-4.827a2.371 2.371 0 01-2.371-2.371v-4.729c0-1.51-2.285-1.513-2.285 0v4.729A4.655 4.655 0 0021.301 78h50.555a4.655 4.655 0 004.655-4.655V61.724c0-4.56-2.292-7.787-6.989-9.808zm-2.394 1.532c-.159.698-2.385 6.693-2.385 15.08v7.188H47.72v-5.757c0-1.711.52-3.356 1.505-4.756a2138.041 2138.041 0 009.354-13.509c8.201 1.652 7.212 1.31 8.548 1.754zM45.8 63.888a896.898 896.898 0 01-3.203-4.595 3.426 3.426 0 001.02-.407l2.962-1.777 2.962 1.777c.323.193.668.329 1.02.407a862.95 862.95 0 01-3.202 4.595c-.293.415-.553.847-.78 1.293a10.602 10.602 0 00-.779-1.293zm-1.553-8.044c-1.81.968-1.68 1.258-2.503 1.16a1.8 1.8 0 01-1.262-.768c-1.366-1.978-2.63-3.814-3.458-5.017l2.288-.445c.739 2.245 3.175 4.03 4.935 5.07zm11.888-4.625a4331.05 4331.05 0 01-3.467 5.03c-.559.808-1.56.911-1.952.676l-1.805-1.081c1.761-1.04 4.196-2.825 4.935-5.07l2.289.445zm-16.21-37.796v1.433c0 1.51 2.284 1.513 2.284 0v-2.417a12.394 12.394 0 013.228-.566v5.65c0 1.51 2.285 1.512 2.285 0v-5.65a12.41 12.41 0 013.227.566v2.417c0 1.51 2.285 1.513 2.285 0v-1.432c7.142 3.968 6.383 11.552 6.432 11.732H33.492c.04-.147-.674-7.785 6.432-11.733zM31.913 27.44h29.331c1.096 0 1.094 1.655 0 1.655H31.913c-1.096 0-1.094-1.655 0-1.655zm3.995 8.146a1.142 1.142 0 00-1.143-1.118c-.19-.048-1.804.296-1.804-.996V31.38h27.235v2.092c0 1.29-1.658.96-1.805.996a1.14 1.14 0 00-1.142 1.118c-.062 2.856-1.275 5.509-3.33 7.278-4.364 3.757-10.317 3.758-14.68 0-2.056-1.77-3.27-4.423-3.331-7.278zM51.782 46.89v2.54c0 2.044-3.467 4.207-5.204 5.081-1.735-.873-5.195-3.031-5.204-5.072v-2.548a13.12 13.12 0 0010.408 0zm-25.754 6.558c1.335-.443.343-.102 8.548-1.754l.653.95c.666.967 1.588 2.306 2.61 3.786 1.863 2.702 4.434 6.417 6.091 8.773a8.225 8.225 0 011.506 4.756v5.756H28.414v-7.188c0-8.602-2.173-14.14-2.386-15.079zm48.198 19.897a2.373 2.373 0 01-2.37 2.37h-4.828v-7.187c0-7.722 2.146-13.857 2.231-14.23 3.412 1.635 4.968 4.002 4.968 7.426v11.62h-.001z"/><path d="M52.806 66.084a1.956 1.956 0 00-1.953 1.954v2.29c0 1.077.876 1.953 1.953 1.953h6.72a1.956 1.956 0 001.953-1.954v-2.289a1.956 1.956 0 00-1.954-1.954h-6.719zm6.388 3.912h-6.056V68.37h6.056v1.626z"/></g><defs><clipPath id="clip0_1_270"><path fill="#fff" d="M0 0h78v78H0z"/></clipPath></defs></svg>