<svg width="79" height="79" fill="none" xmlns="http://www.w3.org/2000/svg"><g clip-path="url(#clip0_1_280)" fill="#4C858B"><path d="M77.726 0H6.37c-.703 0-1.274.571-1.274 1.274v3.823H1.274C.571 5.097 0 5.667 0 6.37v50.968c0 .704.571 1.274 1.274 1.274h24.874a14.11 14.11 0 004.433 3.55v15.563a1.275 1.275 0 002.175.9l4.196-4.195 4.195 4.195a1.275 1.275 0 002.175-.9V62.162a14.112 14.112 0 004.433-3.55H72.63c.703 0 1.274-.57 1.274-1.274v-3.823h3.823c.703 0 1.274-.57 1.274-1.274V1.274A1.276 1.276 0 0077.726 0zM40.774 74.65l-2.922-2.922a1.273 1.273 0 00-1.801 0l-2.922 2.922V63.167c1.217.345 2.496.542 3.823.542 1.326 0 2.605-.197 3.822-.542V74.65zm-3.822-13.49c-6.323 0-11.468-5.144-11.468-11.468 0-6.323 5.145-11.467 11.468-11.467 6.322 0 11.467 5.144 11.467 11.467 0 6.324-5.145 11.468-11.467 11.468zM23 50.968h-7.8a8.941 8.941 0 00-7.556-7.555V20.297a8.943 8.943 0 007.555-7.555h43.505a8.942 8.942 0 007.554 7.555v23.117a8.94 8.94 0 00-7.554 7.555h-7.8c.036-.422.063-.845.063-1.276 0-7.727-6.289-14.016-14.017-14.016-7.727 0-14.016 6.288-14.016 14.016 0 .43.027.854.066 1.275zm48.354 5.096H49.42c.414-.807.752-1.658 1.004-2.548h9.462c.704 0 1.274-.57 1.274-1.274a6.378 6.378 0 016.371-6.371c.704 0 1.274-.57 1.274-1.274V19.113c0-.703-.57-1.274-1.274-1.274a6.378 6.378 0 01-6.37-6.371c0-.703-.571-1.274-1.275-1.274h-45.87c-.704 0-1.275.57-1.275 1.274a6.378 6.378 0 01-6.371 6.37c-.703 0-1.274.572-1.274 1.275v25.484c0 .704.57 1.274 1.274 1.274a6.378 6.378 0 016.37 6.37c0 .706.572 1.275 1.275 1.275h9.463c.252.89.59 1.74 1.003 2.548H2.548V7.645h68.807v48.42zm5.096-5.096h-2.548V6.37c0-.703-.57-1.274-1.274-1.274H7.645V2.548h68.806v48.42z"/><path d="M36.952 40.774c-4.919 0-8.92 4.003-8.92 8.92h2.549a6.379 6.379 0 016.37-6.371v-2.549zm6.371 8.92a6.378 6.378 0 01-6.371 6.37v2.549c4.918 0 8.92-4.002 8.92-8.92h-2.55zm12.742-28.033v-5.097c0-.703-.571-1.274-1.275-1.274H19.113c-.703 0-1.274.572-1.274 1.274v5.097c0 .703.57 1.274 1.274 1.274H54.79c.704 0 1.275-.57 1.275-1.274zm-2.549-1.274H20.387V17.84h33.13v2.548zm-43.322 5.097h10.193v2.548H10.194v-2.548zm0 5.096h10.193v2.549H10.194v-2.548zm12.742 0H63.71v2.549H22.936v-2.548zm0-5.096H63.71v2.548H22.936v-2.548z"/></g><defs><clipPath id="clip0_1_280"><path fill="#fff" d="M0 0h79v79H0z"/></clipPath></defs></svg>