<svg width="77" height="77" fill="none" xmlns="http://www.w3.org/2000/svg"><path d="M8.2 6.82a1.504 1.504 0 000 3.008h.014c.83 0 1.497-.673 1.497-1.504 0-.83-.681-1.504-1.512-1.504zm7.21 0a1.504 1.504 0 000 3.008h.015c.83 0 1.496-.673 1.496-1.504 0-.83-.68-1.504-1.51-1.504zm7.21 0a1.504 1.504 0 000 3.008h.015c.83 0 1.496-.673 1.496-1.504 0-.83-.68-1.504-1.511-1.504zm36.885 0H41.256a1.504 1.504 0 000 3.008h18.249a1.504 1.504 0 000-3.008zM35.178 59.692c-.28-.28-.668-.44-1.063-.44-.396 0-.784.16-1.063.44-.28.28-.441.668-.441 1.063 0 .395.16.783.44 1.063.28.28.668.44 1.064.44.395 0 .783-.16 1.063-.44.28-.28.44-.667.44-1.063 0-.396-.16-.783-.44-1.063z" fill="#4C858B"/><path d="M68.88 19.291V7.523c0-4.146-3.373-7.518-7.519-7.518H7.52C3.373.005 0 3.377 0 7.523v47.514c0 3.982 3.24 7.222 7.222 7.222h5.644v.244c0 .515-.366.96-.87 1.061l-5.668 1.13A7.292 7.292 0 00.481 71.08l-.463 4.249a1.504 1.504 0 001.494 1.667h32.603a1.503 1.503 0 001.494-1.667l-.464-4.25a7.293 7.293 0 00-5.847-6.385l-5.668-1.13c-.505-.1-.87-.547-.87-1.06V61.09l-.002-.023 2.549-1.457.082-.05c1.367-.903 2.264-2.51 2.4-4.3.004-.038.005-.076.005-.114V48.98c.899-.585 1.555-1.65 1.555-3.512l.002-3.38c0-.055-.003-.11-.009-.165a5.552 5.552 0 00-5.574-5.287H10.99c-.56 0-1.081-.297-1.42-.546a2.06 2.06 0 00-2.161-.183 2.052 2.052 0 00-1.132 1.84v4.893c0 1.662.584 3.19 1.557 4.39v8.117c0 .038.002.076.004.115.122 1.596.86 3.05 2.002 3.99H7.222a4.22 4.22 0 01-4.215-4.215V23.473h16.794a1.504 1.504 0 000-3.007H3.008v-4.21h62.864v2.994h-24.41c-4.947 0-8.972 4.025-8.972 8.972v12.586c0 4.947 4.025 8.972 8.972 8.972h1.88v4.397a1.504 1.504 0 002.567 1.063l5.46-5.46h14.504v5.256a4.22 4.22 0 01-4.215 4.215H40.234a1.504 1.504 0 000 3.008h21.423c3.983 0 7.223-3.24 7.223-7.222v-5.298c4.549-.43 8.12-4.27 8.12-8.93V28.221c0-4.66-3.571-8.5-8.12-8.93zm-45.148 47.36l4.979.992a4.296 4.296 0 013.445 3.762l.282 2.583H3.189l.282-2.582a4.296 4.296 0 013.445-3.763l4.979-.992a8.845 8.845 0 005.919 2.25 8.846 8.846 0 005.918-2.25zm-8.822-1.52a4.083 4.083 0 00.951-2.358 4.43 4.43 0 001.953.46c.664 0 1.328-.155 1.95-.46.06.887.404 1.708.952 2.36a5.869 5.869 0 01-2.902.761 5.87 5.87 0 01-2.904-.762zm9.877-10.047c-.076.82-.463 1.557-1.02 1.944l-5.053 2.888a1.505 1.505 0 00-.082.05 1.428 1.428 0 01-1.636 0 1.475 1.475 0 00-.081-.049l-5.038-2.888c-.568-.393-.96-1.13-1.037-1.945v-5.89a6.95 6.95 0 002.423.434h11.524v5.456zM9.284 42.642V39.33a4.917 4.917 0 001.706.315h12.778a2.56 2.56 0 012.576 2.55l-.003 3.273v.001c0 .761-.155.954-.173.973-.06.067-.324.18-.925.18h-11.98a3.984 3.984 0 01-3.98-3.98zM3.008 13.248V7.523a4.516 4.516 0 014.51-4.51h53.843a4.516 4.516 0 014.511 4.51v5.725H3.008zm70.985 27.56a5.972 5.972 0 01-5.965 5.965H50.745c-.398 0-.78.158-1.063.44l-3.333 3.334v-2.27c0-.83-.673-1.504-1.504-1.504h-3.383a5.972 5.972 0 01-5.965-5.965V28.222a5.971 5.971 0 015.965-5.965h26.566a5.972 5.972 0 015.965 5.965v12.586z" fill="#4C858B"/><path d="M42.715 29.947a4.516 4.516 0 00-4.512 4.51 4.516 4.516 0 004.512 4.512 4.516 4.516 0 004.51-4.511 4.516 4.516 0 00-4.51-4.511zm0 6.014a1.505 1.505 0 11.001-3.01 1.505 1.505 0 01-.001 3.01zm12.029-6.014a4.516 4.516 0 00-4.51 4.51 4.516 4.516 0 004.51 4.512 4.516 4.516 0 004.511-4.511 4.516 4.516 0 00-4.51-4.511zm0 6.014a1.505 1.505 0 01-1.504-1.503 1.505 1.505 0 013.008 0c0 .829-.675 1.503-1.504 1.503zm12.031-6.014a4.516 4.516 0 00-4.512 4.51 4.516 4.516 0 004.512 4.512 4.516 4.516 0 004.51-4.511 4.516 4.516 0 00-4.51-4.511zm0 6.014a1.505 1.505 0 010-3.007 1.505 1.505 0 01-.001 3.007zM26.502 20.906c-.28-.28-.667-.44-1.063-.44-.395 0-.783.16-1.063.44-.28.28-.44.666-.44 1.063 0 .396.16.784.44 1.063.28.28.668.441 1.063.441a1.507 1.507 0 001.064-2.567z" fill="#4C858B"/></svg>